<svg xmlns="http://www.w3.org/2000/svg" fill="none" width="348" height="348"><rect width="100%" height="100%"/><g class="currentLayer"><path d="M5 6h337v337H5z" stroke-width="2" stroke="#000"/><path d="M283 41c0-9 7-16 15-16 4 0 8 2 11 5s5 7 5 11c0 8-7 15-16 15-8 0-15-7-15-15z" stroke-width="2" stroke="#000"/><path fill="#fff" stroke="#222" stroke-width="2" stroke-linejoin="round" color="#000" d="M22 30h240v55H22zM20 128h229v36H20zM21 179h229v36H21zM20 230h229v36H20zM21 284h229v36H21zM272 130h37v35h-37zM273 180h37v35h-37zM272 233h37v35h-37zM273 285h37v35h-37z"/></g></svg>